<svg width="71" height="55" viewBox="0 0 71 55" fill="none" xmlns="http://www.w3.org/2000/svg">
<path d="M68.3125 36.0938C68.3125 34.3027 68.3125 3.37969 68.3125 2.1875C68.3125 0.979453 67.333 0 66.125 0C64.917 0 63.9375 0.979453 63.9375 2.1875V4.375H7.0625V2.1875C7.0625 0.979453 6.08305 0 4.875 0C3.66695 0 2.6875 0.979453 2.6875 2.1875V36.0938C1.47945 36.0938 0.5 37.0732 0.5 38.2812V52.5C0.5 53.708 1.47945 54.6875 2.6875 54.6875H8.15625C8.84477 54.6875 9.49309 54.3633 9.90625 53.8125L12.5312 50.3125H58.4688L61.0938 53.8125C61.5068 54.3633 62.1552 54.6875 62.8438 54.6875H68.3125C69.5205 54.6875 70.5 53.708 70.5 52.5V38.2812C70.5 37.0732 69.5205 36.0938 68.3125 36.0938ZM63.9375 26.3334C61.5851 24.9691 59.727 25.1562 57.375 25.1562V20.7812C57.375 17.1627 54.431 14.2188 50.8125 14.2188H39.875C38.1955 14.2188 36.662 14.8537 35.5 15.8951C34.338 14.8537 32.8045 14.2188 31.125 14.2188H20.1875C16.569 14.2188 13.625 17.1627 13.625 20.7812V25.1562C11.1656 25.1562 9.40217 24.9765 7.0625 26.3334V8.75H63.9375V26.3334ZM18 25.1562V20.7812C18 19.5751 18.9814 18.5938 20.1875 18.5938H31.125C32.3311 18.5938 33.3125 19.5751 33.3125 20.7812V25.1562H18ZM37.6875 20.7812C37.6875 19.5751 38.6689 18.5938 39.875 18.5938H50.8125C52.0186 18.5938 53 19.5751 53 20.7812V25.1562H37.6875V20.7812ZM7.0625 33.9062C7.0625 31.4938 9.0251 29.5312 11.4375 29.5312H59.5625C61.9749 29.5312 63.9375 31.4938 63.9375 33.9062V36.0938H7.0625V33.9062ZM66.125 50.3125H63.9375L61.3125 46.8125C60.8995 46.2617 60.251 45.9375 59.5625 45.9375H11.4375C10.749 45.9375 10.1007 46.2617 9.6875 46.8125L7.0625 50.3125H4.875V40.4688H66.125V50.3125Z" fill="#38C5E3"/>
</svg>
