<svg width="95" height="66" viewBox="0 0 95 66" fill="none" xmlns="http://www.w3.org/2000/svg">
<path d="M76 28.2857C73.6248 28.2857 71.3984 28.8749 69.3204 29.6117L54.328 1.4732C53.8828 0.589295 52.992 0 52.25 0H45.1248C43.7892 0 42.75 1.17859 42.75 2.35714C42.75 3.68302 43.7892 4.71429 45.1248 4.71429H50.7656L58.1876 18.8571H33.3984L28.0547 10.6072C27.6094 9.87054 26.8672 9.42857 26.125 9.42857H16.625C15.2891 9.42857 14.25 10.6072 14.25 11.7857C14.25 13.1116 15.2891 14.1429 16.625 14.1429H24.7891L29.8359 22.2456L25.8281 29.759C23.75 28.8749 21.375 28.2857 19 28.2857C8.46092 28.2857 0 36.8302 0 47.1429C0 57.6028 8.46092 66 19 66C28.6484 66 36.5156 58.9284 37.7031 49.4998H47.5C48.242 49.4998 49.1328 49.0579 49.578 48.3215L61.8984 25.7811L65.0156 31.8213C60.1172 35.2097 57 40.808 57 47.1429C57 57.6028 65.4608 66 76 66C86.3908 66 95 57.6028 95 47.1429C95 36.8302 86.3908 28.2857 76 28.2857ZM19 61.2857C11.1328 61.2857 4.75 54.9509 4.75 47.1429C4.75 39.4821 11.1328 33 19 33C20.4844 33 22.1172 33.4419 23.6016 33.8841L16.7734 46.1115C16.0312 47.5847 17.0703 49.4998 19 49.4998H32.9531C31.7656 56.2769 25.9766 61.2857 19 61.2857ZM22.8594 44.7859L32.8047 26.8125L44.5312 44.7859H22.8594ZM47.9452 41.2499L36.5156 23.5714H57.742L47.9452 41.2499ZM76 61.2857C68.1328 61.2857 61.75 54.9509 61.75 47.1429C61.75 42.5759 63.9764 38.5984 67.242 36.0938L73.7736 48.3215C75.258 50.973 79.5624 48.9107 78.078 46.1115L71.5468 33.8841C72.8828 33.4419 74.3672 33 76 33C83.7188 33 90.25 39.4821 90.25 47.1429C90.25 54.9509 83.7188 61.2857 76 61.2857Z" fill="#38C5E3"/>
</svg>
