<svg width="60" height="60" viewBox="0 0 60 60" fill="none" xmlns="http://www.w3.org/2000/svg">
<path d="M42.5 8.34455C38.8227 6.21743 34.5535 5 30 5C16.1929 5 5 16.1929 5 30C5 33.9992 5.93905 37.779 7.60865 41.1312C8.05235 42.022 8.20002 43.0402 7.9428 44.0015L6.45378 49.5668C5.80738 51.9825 8.01752 54.1925 10.4334 53.5463L15.9985 52.0573C16.9598 51.8 17.978 51.9477 18.8688 52.3912C22.2209 54.061 26.0008 55 30 55C43.807 55 55 43.807 55 30C55 25.4465 53.7825 21.1772 51.6555 17.5" stroke="white" stroke-width="3.75" stroke-linecap="round"/>
<path d="M20 30H20.0225M29.9775 30H30M39.9775 30H40" stroke="white" stroke-width="5" stroke-linecap="round" stroke-linejoin="round"/>
</svg>
