<svg width="46" height="66" viewBox="0 0 46 66" fill="none" xmlns="http://www.w3.org/2000/svg">
<path fill-rule="evenodd" clip-rule="evenodd" d="M23 0C19.9298 0 17.4409 2.51482 17.4409 5.61702V40.7234H13.2716C8.4253 40.7234 4.47037 44.5792 4.24787 49.4205L0.352706 59.2599C-0.925355 62.4882 1.42775 66 4.86904 66H41.131C44.5724 66 46.9253 62.4882 45.6473 59.2599L41.7523 49.4205C41.5296 44.5792 37.5749 40.7234 32.7284 40.7234H28.5591V5.61702C28.5591 2.51482 26.0703 0 23 0ZM24.3898 5.61702V40.7234H21.6102V5.61702C21.6102 4.84148 22.2325 4.21277 23 4.21277C23.7676 4.21277 24.3898 4.84148 24.3898 5.61702ZM8.01201 51.2553L4.22385 60.8245C4.04126 61.2856 4.37742 61.7872 4.86904 61.7872H9.49162L11.5763 51.2553H8.01201ZM14.4109 51.2553L12.3263 61.7872H28.1146L26.03 51.2553H14.4109ZM28.8646 51.2553L30.9492 61.7872H41.131C41.6228 61.7872 41.9588 61.2856 41.7762 60.8245L37.9882 51.2553H28.8646ZM37.3914 48.4468C36.7933 46.4165 34.9321 44.9362 32.7284 44.9362H13.2716C11.0681 44.9362 9.20675 46.4165 8.60875 48.4468H37.3914Z" fill="#38C5E3"/>
</svg>
