<svg width="66" height="66" viewBox="0 0 66 66" fill="none" xmlns="http://www.w3.org/2000/svg">
<path d="M41.25 30.9375C45.7617 30.9375 49.5 27.3281 49.5 22.6875C49.5 18.1758 45.7617 14.4375 41.25 14.4375C36.6094 14.4375 33 18.1758 33 22.6875C33 27.3281 36.6094 30.9375 41.25 30.9375ZM41.25 18.5625C43.4415 18.5625 45.375 20.4961 45.375 22.6875C45.375 25.0078 43.4415 26.8125 41.25 26.8125C38.9296 26.8125 37.125 25.0078 37.125 22.6875C37.125 20.4961 38.9296 18.5625 41.25 18.5625ZM51.5625 12.375C54.9142 12.375 57.75 9.66796 57.75 6.1875C57.75 2.83594 54.9142 0 51.5625 0C48.0821 0 45.375 2.83594 45.375 6.1875C45.375 9.66796 48.0821 12.375 51.5625 12.375ZM51.5625 4.125C52.5938 4.125 53.625 5.15625 53.625 6.1875C53.625 7.34767 52.5938 8.25 51.5625 8.25C50.4023 8.25 49.5 7.34767 49.5 6.1875C49.5 5.15625 50.4023 4.125 51.5625 4.125ZM55.9454 25.0078C54.6562 24.75 53.625 25.7812 53.625 27.0703C53.625 28.1017 54.2696 28.875 55.3008 29.1329C59.0392 29.9062 61.875 33.2579 61.875 37.125V53.625C61.875 58.2656 58.1367 61.875 53.625 61.875H12.375C7.73438 61.875 4.125 58.2656 4.125 53.625V37.125C4.125 32.6133 7.73438 28.875 12.375 28.875H26.8125C27.8438 28.875 28.875 27.9727 28.875 26.8125C28.875 25.7812 27.8438 24.75 26.8125 24.75H12.375C5.41406 24.75 0 30.2929 0 37.125V53.625C0 60.5858 5.41406 66 12.375 66H53.625C60.4571 66 66 60.5858 66 53.625V37.125C66 31.1954 61.6171 26.168 55.9454 25.0078ZM20.625 35.0625C14.8242 35.0625 10.3125 39.7031 10.3125 45.375C10.3125 51.1758 14.8242 55.6875 20.625 55.6875H45.375C51.0469 55.6875 55.6875 51.1758 55.6875 45.375C55.6875 39.7031 51.0469 35.0625 45.375 35.0625H20.625ZM51.5625 45.375C51.5625 48.8554 48.7267 51.5625 45.375 51.5625H20.625C17.1445 51.5625 14.4375 48.8554 14.4375 45.375C14.4375 42.0233 17.1445 39.1875 20.625 39.1875H45.375C48.7267 39.1875 51.5625 42.0233 51.5625 45.375ZM24.75 16.5C29.2617 16.5 33 12.8906 33 8.25C33 3.7383 29.2617 0 24.75 0C20.1094 0 16.5 3.7383 16.5 8.25C16.5 12.8906 20.1094 16.5 24.75 16.5ZM24.75 4.125C26.9414 4.125 28.875 6.05858 28.875 8.25C28.875 10.5703 26.9414 12.375 24.75 12.375C22.4297 12.375 20.625 10.5703 20.625 8.25C20.625 6.05858 22.4297 4.125 24.75 4.125Z" fill="#38C5E3"/>
</svg>
