<svg width="66" height="66" viewBox="0 0 66 66" fill="none" xmlns="http://www.w3.org/2000/svg">
<path fill-rule="evenodd" clip-rule="evenodd" d="M32.9962 4.125C17.0513 4.125 4.125 17.0525 4.125 33C4.125 48.9475 17.0513 61.875 32.9962 61.875C43.2512 61.875 52.2593 56.529 57.384 48.4619C57.9947 47.5002 59.2694 47.2161 60.2311 47.8269C61.1925 48.4377 61.4768 49.712 60.866 50.6737C55.0162 59.8821 44.7213 66 32.9962 66C14.7726 66 0 51.2251 0 33C0 14.7748 14.7726 0 32.9962 0C44.7213 0 55.0162 6.11803 60.866 15.3264C61.4768 16.2878 61.1925 17.5624 60.2311 18.1732C59.2694 18.784 57.9947 18.4997 57.384 17.5382C52.2593 9.47089 43.2512 4.125 32.9962 4.125ZM33 11.6875C34.139 11.6875 35.0625 12.6109 35.0625 13.75V32.1456L42.7083 39.7917C43.5138 40.5971 43.5138 41.9029 42.7083 42.7083C41.9029 43.5138 40.5971 43.5138 39.7917 42.7083L31.5417 34.4583C31.1547 34.0717 30.9375 33.547 30.9375 33V13.75C30.9375 12.6109 31.861 11.6875 33 11.6875ZM56.375 23.375C57.514 23.375 58.4375 24.2984 58.4375 25.4375V30.9375H63.9375C65.0766 30.9375 66 31.861 66 33C66 34.139 65.0766 35.0625 63.9375 35.0625H58.4375V40.5625C58.4375 41.7015 57.514 42.625 56.375 42.625C55.236 42.625 54.3125 41.7015 54.3125 40.5625V35.0625H48.8125C47.6735 35.0625 46.75 34.139 46.75 33C46.75 31.861 47.6735 30.9375 48.8125 30.9375H54.3125V25.4375C54.3125 24.2984 55.236 23.375 56.375 23.375Z" fill="#38C5E3"/>
</svg>
