<svg width="124" height="121" viewBox="0 0 124 121" fill="none" xmlns="http://www.w3.org/2000/svg">
<path fill-rule="evenodd" clip-rule="evenodd" d="M114.08 51.7159L123.441 60.7786C124.175 61.4894 124.188 62.655 123.469 63.3817C122.751 64.1085 121.574 64.1212 120.839 63.4102L114.08 56.866V111.796C114.08 116.879 109.916 121 104.78 121H19.22C14.0837 121 9.92 116.879 9.92 111.796V54.2783L3.16068 60.8225C2.42637 61.5333 1.24876 61.5205 0.53041 60.7938C-0.18794 60.067 -0.175 58.9017 0.559314 58.1907L60.6635 0L90.52 28.906V18.5291C90.52 16.8346 91.9078 15.4611 93.62 15.4611H110.98C112.692 15.4611 114.08 16.8346 114.08 18.5291V51.7159ZM110.36 48.1144V19.1427H94.24V32.5076L110.36 48.1144ZM60.6635 5.15029L110.36 53.2647V111.796C110.36 114.846 107.862 117.318 104.78 117.318H19.22C16.1382 117.318 13.64 114.846 13.64 111.796V50.9475C13.64 50.8613 13.634 50.7766 13.6225 50.6937L60.6635 5.15029Z" fill="#B09E6F"/>
</svg>
